<?xml version="1.0" encoding="UTF-8" standalone="no"?>
<svg width="100%" height="100%" viewBox="0 0 871 860" version="1.1" xmlns="http://www.w3.org/2000/svg" xmlns:xlink="http://www.w3.org/1999/xlink" xml:space="preserve" xmlns:serif="http://www.serif.com/" style="fill-rule:evenodd;clip-rule:evenodd;stroke-linejoin:round;stroke-miterlimit:2;">
    <g transform="matrix(1,0,0,1,-103,-122)">
        <path d="M579.584,135.168C534.528,117.419 490.155,117.419 446.464,135.168L151.552,253.952C136.533,259.413 124.587,268.629 115.712,281.6C106.837,294.571 102.4,308.565 102.4,323.584L102.4,716.8C102.4,731.819 106.837,745.813 115.712,758.784C124.587,771.755 136.533,780.971 151.552,786.432L446.464,905.216L460.8,911.36L460.8,856.064L169.984,739.328C159.061,735.232 153.6,727.723 153.6,716.8L153.6,327.68L487.424,460.8L487.424,622.592C499.712,604.843 516.096,591.189 536.576,581.632L536.576,460.8L870.4,327.68L870.4,493.568C896.341,514.048 912.725,540.672 919.552,573.44L921.6,573.44L921.6,323.584C921.6,308.565 917.163,294.571 908.288,281.6C899.413,268.629 887.467,259.413 872.448,253.952L579.584,135.168ZM464.896,182.272C496.299,169.984 527.701,169.984 559.104,182.272L827.392,288.768L710.656,335.872L395.264,210.944L464.896,182.272ZM325.632,237.568L641.024,364.544L512,415.744L196.608,288.768L325.632,237.568ZM614.4,622.592L614.4,595.968C614.4,575.488 621.909,557.739 636.928,542.72C651.947,527.701 670.379,520.192 692.224,520.192L794.624,520.192C815.104,520.192 832.853,527.701 847.872,542.72C862.891,557.739 870.4,575.488 870.4,595.968L870.4,622.592L897.024,622.592C917.504,622.592 935.253,630.101 950.272,645.12C965.291,660.139 972.8,677.888 972.8,698.368L972.8,776.192L870.4,776.192L870.4,749.568C870.4,742.741 868.011,736.939 863.232,732.16C858.453,727.381 852.309,724.992 844.8,724.992C837.291,724.992 831.147,727.381 826.368,732.16C821.589,736.939 819.2,742.741 819.2,749.568L819.2,776.192L665.6,776.192L665.6,749.568C665.6,742.741 663.211,736.939 658.432,732.16C653.653,727.381 647.509,724.992 640,724.992C632.491,724.992 626.347,727.381 621.568,732.16C616.789,736.939 614.4,742.741 614.4,749.568L614.4,776.192L512,776.192L512,698.368C512,677.888 519.509,660.139 534.528,645.12C549.547,630.101 567.979,622.592 589.824,622.592L614.4,622.592ZM794.624,571.392L692.224,571.392C684.032,571.392 677.547,573.781 672.768,578.56C667.989,583.339 665.6,589.141 665.6,595.968L665.6,622.592L819.2,622.592L819.2,595.968C819.2,589.141 816.811,583.339 812.032,578.56C807.253,573.781 801.451,571.392 794.624,571.392ZM870.4,851.968L870.4,827.392L972.8,827.392L972.8,903.168C972.8,925.013 965.291,943.445 950.272,958.464C935.253,973.483 916.821,980.992 894.976,980.992L589.824,980.992C567.979,980.992 549.547,973.483 534.528,958.464C519.509,943.445 512,925.696 512,905.216L512,827.392L614.4,827.392L614.4,851.968C614.4,860.16 616.789,866.645 621.568,871.424C626.347,876.203 632.491,878.592 640,878.592C647.509,878.592 653.653,876.203 658.432,871.424C663.211,866.645 665.6,860.16 665.6,851.968L665.6,827.392L819.2,827.392L819.2,851.968C819.2,860.16 821.589,866.645 826.368,871.424C831.147,876.203 837.291,878.592 844.8,878.592C852.309,878.592 858.453,876.203 863.232,871.424C868.011,866.645 870.4,860.16 870.4,851.968Z" style="fill:rgb(53,94,59);fill-rule:nonzero;stroke:black;stroke-width:1px;"/>
    </g>
    <g transform="matrix(0.510395,0.201754,-0.000770693,0.752919,10.0147,106.497)">
        <text x="208.6px" y="332.932px" style="font-family:'Arial-BoldMT', 'Arial', sans-serif;font-weight:700;font-size:288px;fill:rgb(16,59,29);">EF</text>
        <g transform="matrix(288,0,0,288,704.655,630.354)">
        </g>
        <text x="80.561px" y="630.354px" style="font-family:'Arial-BoldMT', 'Arial', sans-serif;font-weight:700;font-size:288px;fill:rgb(16,59,29);">BOX</text>
    </g>
</svg>
