<?xml version="1.0" encoding="UTF-8" standalone="no"?>
<!DOCTYPE svg PUBLIC "-//W3C//DTD SVG 1.1//EN" "http://www.w3.org/Graphics/SVG/1.1/DTD/svg11.dtd">
<svg width="100%" height="100%" viewBox="0 0 383 229" version="1.1" xmlns="http://www.w3.org/2000/svg" xmlns:xlink="http://www.w3.org/1999/xlink" xml:space="preserve" xmlns:serif="http://www.serif.com/" style="fill-rule:evenodd;clip-rule:evenodd;stroke-linejoin:round;stroke-miterlimit:2;">
    <g transform="matrix(2.397,0,0,5.13551,29.4268,-385.338)">
        <text x="83.223px" y="93.501px" style="font-family:'ArialMT', 'Arial', sans-serif;font-size:24px;fill:rgb(53,94,59);">3x</text>
        <g transform="matrix(24,0,0,24,149.914,118.286)">
        </g>
        <text x="83.223px" y="118.286px" style="font-family:'ArialMT', 'Arial', sans-serif;font-size:24px;fill:rgb(53,94,59);">faster</text>
    </g>
    <g id="speed.svg" transform="matrix(12.25,0,0,12.25,103.905,117.215)">
        <g transform="matrix(1,0,0,1,-8,-8)">
            <clipPath id="_clip1">
                <rect x="0" y="0" width="16" height="16"/>
            </clipPath>
            <g clip-path="url(#_clip1)">
                <path d="M8,2C8.274,2 8.5,2.226 8.5,2.5L8.5,4C8.5,4.274 8.274,4.5 8,4.5C7.726,4.5 7.5,4.274 7.5,4L7.5,2.5C7.5,2.226 7.726,2 8,2ZM3.732,3.732C3.926,3.538 4.245,3.538 4.439,3.732L5.354,4.646C5.448,4.74 5.501,4.867 5.501,5C5.501,5.275 5.275,5.501 5,5.501C4.867,5.501 4.74,5.448 4.646,5.354L3.732,4.439C3.538,4.245 3.538,3.926 3.732,3.732ZM2,8C2,7.726 2.226,7.5 2.5,7.5L4.086,7.5C4.36,7.5 4.586,7.726 4.586,8C4.586,8.274 4.36,8.5 4.086,8.5L2.5,8.5C2.226,8.5 2,8.274 2,8ZM11.5,8C11.5,7.726 11.726,7.5 12,7.5L13.5,7.5C13.774,7.5 14,7.726 14,8C14,8.274 13.774,8.5 13.5,8.5L12,8.5C11.726,8.5 11.5,8.274 11.5,8ZM12.254,3.754C12.111,3.612 11.88,3.603 11.727,3.734L7.547,7.31C7.345,7.483 7.229,7.736 7.229,8.001C7.229,8.5 7.64,8.911 8.139,8.911C8.415,8.911 8.677,8.785 8.85,8.569L12.284,4.272C12.407,4.118 12.395,3.893 12.255,3.754L12.254,3.754Z" style="fill:rgb(53,94,59);fill-rule:nonzero;"/>
                <path d="M6.664,15.889C2.831,15.24 -0.002,11.887 -0.002,7.999C-0.002,3.61 3.61,-0.002 8,-0.002C8.448,-0.002 8.895,0.035 9.336,0.11C13.169,0.759 16.002,4.112 16.002,8C16.002,12.39 12.39,16.002 8,16.002C7.552,16.002 7.105,15.965 6.664,15.89L6.664,15.889ZM1.999,11.606C3.823,10.551 5.893,9.997 8,10C10.186,10 12.236,10.585 14.001,11.606C14.655,10.518 15,9.272 15,8.002C15,4.162 11.84,1.002 8,1.002C4.16,1.002 1,4.162 1,8.002C1,9.272 1.345,10.518 1.999,11.606Z" style="fill:rgb(53,94,59);"/>
            </g>
        </g>
    </g>
</svg>
